<?xml version="1.0" encoding="UTF-8" standalone="no"?>
<!-- Created with Inkscape (http://www.inkscape.org/) -->

<svg
   width="2560mm"
   height="720mm"
   viewBox="0 0 2560 720"
   version="1.1"
   id="svg1"
   sodipodi:docname="Copy.svg"
   inkscape:export-filename="..\..\..\QuizKPMain\assets\img\Soal8.svg"
   inkscape:export-xdpi="96"
   inkscape:export-ydpi="96"
   inkscape:version="1.3.2 (091e20e, 2023-11-25, custom)"
   xml:space="preserve"
   xmlns:inkscape="http://www.inkscape.org/namespaces/inkscape"
   xmlns:sodipodi="http://sodipodi.sourceforge.net/DTD/sodipodi-0.dtd"
   xmlns="http://www.w3.org/2000/svg"
   xmlns:svg="http://www.w3.org/2000/svg"><sodipodi:namedview
     id="namedview1"
     pagecolor="#ffffff"
     bordercolor="#000000"
     borderopacity="0.25"
     inkscape:showpageshadow="2"
     inkscape:pageopacity="0.0"
     inkscape:pagecheckerboard="0"
     inkscape:deskcolor="#d1d1d1"
     inkscape:document-units="mm"
     inkscape:zoom="0.028284271"
     inkscape:cx="-601.04076"
     inkscape:cy="-6982.6795"
     inkscape:window-width="1350"
     inkscape:window-height="729"
     inkscape:window-x="0"
     inkscape:window-y="0"
     inkscape:window-maximized="0"
     inkscape:current-layer="layer1" /><defs
     id="defs1" /><g
     inkscape:label="Layer 1"
     inkscape:groupmode="layer"
     id="layer1">
			
		<g
   id="g374"><g
     id="Object"
     transform="matrix(0.88751682,0,0,0.88751682,782.10306,-205.33107)">
	<g
   id="g5-5">
		<path
   style="fill:#aad4c8"
   d="m 792.742,668.122 c -36.454,0 -66.954,25.424 -74.776,59.485 -5.959,-1.756 -12.245,-2.724 -18.748,-2.724 -36.351,0 -65.814,29.469 -65.814,65.819 0,36.323 29.464,65.803 65.814,65.803 h 0.114 174.465 V 856.5 C 902.126,856.276 925,833.245 925,804.879 c 0,-28.506 -23.091,-51.604 -51.604,-51.604 -1.467,0 -2.917,0.08 -4.366,0.198 0.298,-2.816 0.504,-5.67 0.504,-8.569 0,-42.416 -34.391,-76.782 -76.792,-76.782 z"
   id="path2-8" />
		<path
   style="fill:#616e7d"
   d="m 699.218,703.058 c 1.37,0 2.767,0.046 4.154,0.109 15.866,-34.282 50.211,-56.87 89.37,-56.87 50.532,0 92.304,38.196 97.959,87.221 3.232,0.767 6.32,1.933 9.397,3.146 3.295,-12.818 5.26,-26.175 5.26,-40.021 0,-88.278 -71.578,-159.834 -159.859,-159.834 -15.843,0 -31.114,2.329 -45.536,6.612 -19.069,-82.78 -93.146,-144.532 -181.696,-144.532 -103.001,0 -186.487,83.5 -186.487,186.492 0,7.048 0.413,13.998 1.186,20.851 -3.501,-0.286 -7.037,-0.481 -10.601,-0.481 C 253.125,605.753 197,661.877 197,731.124 c 0,68.917 55.598,124.827 124.385,125.362 v 0.02 h 320.149 c -18.307,-16.076 -29.956,-39.588 -29.956,-65.803 0,-48.326 39.313,-87.645 87.64,-87.645 z"
   id="path3-0" />
		<path
   style="fill:#82bfab"
   d="m 637.289,344.456 -2.155,-0.31 c -4.131,0 -7.506,3.364 -7.506,7.495 v 27.4 c 0,3.077 1.971,5.85 4.871,6.907 43.496,15.577 78.42,49.091 95.885,91.945 1.14,2.768 3.799,4.547 6.767,4.547 h 27.928 c 2.406,0 4.681,-1.184 6.09,-3.14 1.404,-1.98 1.771,-4.484 0.986,-6.759 C 748.953,411.327 699.27,363.439 637.289,344.456 Z"
   id="path4-9" />
		<path
   style="fill:#616e7d"
   d="m 646.055,265.646 -1.622,-0.152 c -4.137,0 -7.5,3.338 -7.5,7.472 v 26.991 c 0,3.357 2.292,6.283 5.587,7.117 79.778,19.865 143.134,81.419 165.371,160.69 0.877,3.163 3.776,5.386 7.048,5.386 h 27.068 c 2.32,0 4.469,-1.072 5.896,-2.906 1.421,-1.822 1.919,-4.177 1.364,-6.394 C 824.635,365.461 744.863,287.669 646.055,265.646 Z"
   id="path5-9" />
	</g>
</g><text
     id="text372"
     x="817.65601"
     y="674.43311"
     style="font-size:77.8896px;stroke-width:6.4908"><tspan
       x="817.65601"
       y="674.43311"
       style="font-size:128.994px;font-family:Montserrat-Bold;fill:#1a4557;stroke-width:6.4908"
       id="tspan371">BACKUP DATA</tspan></text></g></g></svg>
